<?xml version="1.0" encoding="UTF-8"?>
<svg xmlns="http://www.w3.org/2000/svg" viewBox="0 0 800 400">
  <!-- Background with subtle gradient -->
  <defs>
    <linearGradient id="bgGradient" x1="0%" y1="0%" x2="100%" y2="100%">
      <stop offset="0%" stop-color="#f8f9fa" />
      <stop offset="100%" stop-color="#e9ecef" />
    </linearGradient>
    
    <!-- Glowing effect for watermark -->
    <filter id="glow" x="-20%" y="-20%" width="140%" height="140%">
      <feGaussianBlur stdDeviation="5" result="blur" />
      <feComposite in="SourceGraphic" in2="blur" operator="over" />
    </filter>
    
    <!-- Pulsing animation -->
    <radialGradient id="pulseGradient" cx="50%" cy="50%" r="50%" fx="50%" fy="50%">
      <stop offset="0%" stop-color="#4361ee" stop-opacity="0.7">
        <animate attributeName="stop-opacity" values="0.7;0.2;0.7" dur="3s" repeatCount="indefinite" />
      </stop>
      <stop offset="100%" stop-color="#4361ee" stop-opacity="0">
        <animate attributeName="stop-opacity" values="0;0.2;0" dur="3s" repeatCount="indefinite" />
      </stop>
    </radialGradient>
  </defs>
  
  <!-- Background -->
  <rect width="800" height="400" fill="url(#bgGradient)" rx="15" ry="15" />
  
  <!-- Document with AI content -->
  <g transform="translate(150, 80)">
    <!-- Document background -->
    <rect width="300" height="240" fill="white" rx="5" ry="5" stroke="#ced4da" stroke-width="2" />
    
    <!-- Document lines with different colors to represent AI confidence levels -->
    <g transform="translate(20, 30)">
      <rect width="260" height="10" fill="#212529" rx="2" ry="2" />
      <rect width="200" height="10" fill="#212529" rx="2" ry="2" y="20" />
      <rect width="180" height="10" fill="#ff5a5f" rx="2" ry="2" y="40" >
        <animate attributeName="fill" values="#ff5a5f;#ff8080;#ff5a5f" dur="4s" repeatCount="indefinite" />
      </rect>
      <rect width="260" height="10" fill="#212529" rx="2" ry="2" y="60" />
      <rect width="220" height="10" fill="#3a86ff" rx="2" ry="2" y="80" >
        <animate attributeName="fill" values="#3a86ff;#4cc9f0;#3a86ff" dur="3s" repeatCount="indefinite" />
      </rect>
      <rect width="240" height="10" fill="#212529" rx="2" ry="2" y="100" />
      <rect width="150" height="10" fill="#ff5a5f" rx="2" ry="2" y="120" >
        <animate attributeName="fill" values="#ff5a5f;#ff8080;#ff5a5f" dur="4s" repeatCount="indefinite" />
      </rect>
      <rect width="260" height="10" fill="#212529" rx="2" ry="2" y="140" />
      <rect width="200" height="10" fill="#212529" rx="2" ry="2" y="160" />
      <rect width="180" height="10" fill="#3a86ff" rx="2" ry="2" y="180" >
        <animate attributeName="fill" values="#3a86ff;#4cc9f0;#3a86ff" dur="3s" repeatCount="indefinite" />
      </rect>
    </g>
    
    <!-- Watermark overlay -->
    <g transform="translate(150, 120)" opacity="0.6" filter="url(#glow)">
      <circle cx="0" cy="0" r="100" fill="url(#pulseGradient)" />
      <path d="M-40,-40 L40,40 M-40,40 L40,-40" stroke="#3a0ca3" stroke-width="8" stroke-linecap="round">
        <animate attributeName="stroke-width" values="8;10;8" dur="2s" repeatCount="indefinite" />
      </path>
      <circle cx="0" cy="0" r="50" fill="none" stroke="#3a0ca3" stroke-width="4" stroke-dasharray="15,5">
        <animate attributeName="stroke-dashoffset" from="0" to="40" dur="3s" repeatCount="indefinite" />
      </circle>
    </g>
  </g>
  
  <!-- AI Icon with Probability Display -->
  <g transform="translate(550, 200)">
    <!-- AI Brain Icon -->
    <path d="M0,-60 C-40,-60 -50,-30 -50,0 C-50,30 -40,60 0,60 C40,60 50,30 50,0 C50,-30 40,-60 0,-60" fill="#f72585" stroke="#3a0ca3" stroke-width="3" />
    <path d="M-30,-10 L30,-10 M-20,0 L20,0 M-25,10 L25,10 M-15,20 L15,20" stroke="#3a0ca3" stroke-width="3" stroke-linecap="round" />
    <circle cx="0" cy="-20" r="15" fill="#3a0ca3" />
    
    <!-- Probability Meters -->
    <g transform="translate(80, -40)">
      <rect width="100" height="20" fill="#e9ecef" rx="5" ry="5" />
      <rect width="85" height="20" fill="#52b788" rx="5" ry="5">
        <animate attributeName="width" values="85;90;85" dur="3s" repeatCount="indefinite" />
      </rect>
      <text x="110" y="15" font-family="Arial" font-size="12" fill="#212529" text-anchor="end">85%</text>
    </g>
    
    <g transform="translate(80, 0)">
      <rect width="100" height="20" fill="#e9ecef" rx="5" ry="5" />
      <rect width="50" height="20" fill="#ffb703" rx="5" ry="5">
        <animate attributeName="width" values="50;45;50" dur="2s" repeatCount="indefinite" />
      </rect>
      <text x="110" y="15" font-family="Arial" font-size="12" fill="#212529" text-anchor="end">50%</text>
    </g>
    
    <g transform="translate(80, 40)">
      <rect width="100" height="20" fill="#e9ecef" rx="5" ry="5" />
      <rect width="25" height="20" fill="#e63946" rx="5" ry="5">
        <animate attributeName="width" values="25;20;25" dur="4s" repeatCount="indefinite" />
      </rect>
      <text x="110" y="15" font-family="Arial" font-size="12" fill="#212529" text-anchor="end">25%</text>
    </g>
  </g>
  
  <!-- Title -->
  <text x="400" y="40" font-family="Arial" font-size="30" font-weight="bold" fill="#3a0ca3" text-anchor="middle">AI Watermark Technology</text>
  <text x="400" y="70" font-family="Arial" font-size="16" fill="#212529" text-anchor="middle">Visual Representation of AI Content Confidence</text>
  
  <!-- Bottom annotation -->
  <text x="400" y="380" font-family="Arial" font-size="12" fill="#6c757d" text-anchor="middle">Patent-based technology by Ucaretron Inc.</text>
</svg>